# xmcd
#
# Track frame offsets:
#	150
#	12230
#	24058
#	40200
#	52924
#	69822
#	79595
#	92430
#	104118
#	121420
#	139388
#	152243
#	162260
#	178873
#	208903
#	231498
#	247483
#	262703
#	286943
#	298261
#
# Disc length: 4156 seconds
# Revision: 0
# Processed by: cddbd v1.5.2PL0 Copyright (c) Steve Scherf et al.
# Submitted via: dBpowerAMP V12.0
#
DISCID=1f103a14
DTITLE=Ike and Tina Turner - The Soul of Ike and Tina Turner - CD1
DYEAR=2014
DGENRE=Soul
TTITLE0=A Fool in Love
TTITLE1=Bold Soul Sister
TTITLE2=Mississippi Rolling Stone
TTITLE3=I Idolize You
TTITLE4=I Smell Trouble
TTITLE5=The Argument
TTITLE6=Betcha Can't Kiss Me (Just One Time Baby)
TTITLE7=Letter From Tina
TTITLE8=You're Up to Something
TTITLE9=Bootsie White Law
TTITLE10=You're Still My Baby
TTITLE11=I'm Jealous
TTITLE12=You Should Have Treated Me Right
TTITLE13=The Hunter
TTITLE14=Push
TTITLE15=Shake a Hand
TTITLE16=Crazy 'Bout You Baby
TTITLE17=Such a Fool for You
TTITLE18=We Need an Understanding
TTITLE19=Too Much Man for One Woman
EXTD=
EXTT0=
EXTT1=
EXTT2=
EXTT3=
EXTT4=
EXTT5=
EXTT6=
EXTT7=
EXTT8=
EXTT9=
EXTT10=
EXTT11=
EXTT12=
EXTT13=
EXTT14=
EXTT15=
EXTT16=
EXTT17=
EXTT18=
EXTT19=
PLAYORDER=
